<svg width="245" height="245" viewBox="0 0 245 245" xmlns="http://www.w3.org/2000/svg"><g fill="none" fill-rule="evenodd"><path fill="#1D3657" d="M0 0h245v245H0z"/><path d="M141.27 116.053l-2.652 9.108 8.54-4.536c-1.24-2.205-3.356-3.87-5.888-4.57zM124.99 108.587c-1.317-1.222-3.455-1.22-4.774 0l-.596.554c-1.318 1.222-1.317 3.205 0 4.427l.635.588a21.106 21.106 0 0 1 5.077-5.25l-.34-.318zM144.4 105.737c.006-.07.02-.14.02-.21v-1.65c0-1.82-1.462-3.297-3.266-3.298h-5.717c-1.803 0-3.266 1.476-3.266 3.297v1.62a20.98 20.98 0 0 1 12.23.24" fill="#46AEDA"/><path d="M138.618 112.83c7.11 0 12.895 5.784 12.895 12.894s-5.785 12.894-12.895 12.894c-7.11 0-12.894-5.784-12.894-12.894s5.785-12.895 12.894-12.895m-18.052 12.894c0 9.97 8.08 18.052 18.052 18.052s18.053-8.083 18.053-18.052c0-9.97-8.08-18.053-18.052-18.053-9.97 0-18.052 8.085-18.052 18.054z" fill="#46AEDA"/><path d="M56.213 143.132a212.274 212.274 0 0 1-2.105-5.847 676.69 676.69 0 0 0-2.04-5.846H31.42l-4.144 11.692h-6.642c1.753-4.844 3.397-9.325 4.932-13.443a580.832 580.832 0 0 1 4.506-11.725c1.468-3.7 2.926-7.234 4.373-10.603 1.447-3.37 2.96-6.704 4.538-10.007h5.855a273.657 273.657 0 0 1 4.538 10.007 416.425 416.425 0 0 1 4.374 10.603 601.108 601.108 0 0 1 4.505 11.724c1.534 4.117 3.178 8.598 4.932 13.442h-6.97zm-5.985-16.977a747.27 747.27 0 0 0-4.176-11.13 199.6 199.6 0 0 0-4.31-10.338 165.352 165.352 0 0 0-4.372 10.338c-1.38 3.59-2.752 7.298-4.11 11.13h16.968zM78.47 143.132c-3.676-.088-6.282-.896-7.82-2.428-1.54-1.53-2.308-3.915-2.308-7.153V92.604l5.96-1.05v41.013c0 1.008.087 1.84.257 2.495.17.656.448 1.182.832 1.576.385.393.898.688 1.54.885.64.198 1.43.363 2.37.494l-.833 5.118M107.45 138.986c-.518.35-1.522.795-3.012 1.34s-3.227.818-5.213.818c-2.03 0-3.94-.328-5.73-.98a12.44 12.44 0 0 1-4.696-3.04c-1.34-1.375-2.397-3.084-3.174-5.133-.776-2.047-1.165-4.488-1.165-7.32 0-2.485.367-4.763 1.1-6.833.735-2.07 1.803-3.857 3.207-5.36 1.403-1.504 3.118-2.68 5.148-3.53 2.03-.85 4.317-1.276 6.864-1.276 2.805 0 5.255.21 7.35.623 2.093.414 3.852.795 5.277 1.143v30.335c0 5.23-1.338 9.022-4.014 11.375-2.68 2.354-6.736 3.53-12.175 3.53-2.116 0-4.112-.173-5.99-.522-1.878-.35-3.508-.762-4.89-1.242l1.102-5.294c1.208.478 2.687.904 4.436 1.274 1.748.37 3.572.556 5.47.556 3.584 0 6.163-.72 7.74-2.158 1.576-1.437 2.363-3.726 2.363-6.864v-1.438zm-2.494-25.725c-1.015-.15-2.385-.228-4.11-.228-3.24 0-5.733 1.07-7.48 3.204-1.75 2.136-2.623 4.968-2.623 8.498 0 1.962.247 3.64.744 5.035.496 1.394 1.166 2.547 2.007 3.463.842.915 1.814 1.59 2.915 2.026 1.1.436 2.233.653 3.4.653 1.595 0 3.063-.228 4.4-.686 1.34-.458 2.397-.99 3.174-1.6V113.75c-.605-.175-1.413-.338-2.428-.49zM172.6 143.132c-3.675-.09-6.28-.896-7.82-2.428-1.537-1.53-2.306-3.916-2.306-7.153V92.604l5.96-1.05v41.013c0 1.007.086 1.838.257 2.494.172.656.45 1.18.835 1.575.384.394.896.69 1.538.886.64.198 1.43.362 2.37.493l-.832 5.12M183.75 102.147c-1.075 0-1.99-.362-2.74-1.084-.753-.723-1.128-1.697-1.128-2.924 0-1.227.375-2.202 1.128-2.924.75-.723 1.665-1.084 2.74-1.084 1.074 0 1.988.36 2.74 1.084.75.722 1.128 1.697 1.128 2.923s-.377 2.2-1.127 2.923c-.752.722-1.666 1.084-2.74 1.084zm-2.966 6.176h5.996v34.164h-5.996v-34.164zM208.09 107.67c2.438 0 4.493.323 6.17.964 1.674.64 3.023 1.548 4.045 2.72 1.023 1.174 1.752 2.567 2.187 4.182.434 1.615.653 3.396.653 5.343v21.57c-.522.088-1.252.21-2.186.364a62.73 62.73 0 0 1-3.167.43c-1.175.134-2.448.255-3.818.366a51.12 51.12 0 0 1-4.08.166c-1.915 0-3.677-.2-5.287-.597-1.61-.4-3.002-1.03-4.177-1.892-1.174-.863-2.088-2.002-2.74-3.42-.653-1.415-.98-3.118-.98-5.11 0-1.9.38-3.54 1.143-4.91a9.18 9.18 0 0 1 3.1-3.32c1.305-.84 2.828-1.46 4.57-1.857a24.506 24.506 0 0 1 5.482-.597c.608 0 1.24.033 1.892.1a22.47 22.47 0 0 1 1.86.266c.588.11 1.1.21 1.535.297.435.09.74.156.913.2v-1.726c0-1.017-.11-2.023-.326-3.02a6.984 6.984 0 0 0-1.176-2.654c-.566-.774-1.338-1.393-2.317-1.86-.98-.463-2.253-.695-3.818-.695-2.004 0-3.754.145-5.256.432-1.5.288-2.62.587-3.36.896l-.72-5.11c.784-.354 2.09-.697 3.917-1.03 1.83-.33 3.81-.497 5.94-.497zm.523 30.93c1.436 0 2.71-.034 3.82-.1 1.108-.067 2.032-.187 2.772-.365v-10.287c-.436-.22-1.142-.41-2.12-.564-.98-.155-2.166-.234-3.558-.234-.914 0-1.883.067-2.904.2a8.852 8.852 0 0 0-2.807.83 6.02 6.02 0 0 0-2.122 1.726c-.565.73-.848 1.692-.848 2.887 0 2.212.695 3.75 2.09 4.612 1.39.863 3.284 1.294 5.677 1.294z" fill="#FFF"/></g></svg>